<svg height="478" width="720" xmlns="http://www.w3.org/2000/svg">
<rect height="478" fill="#555" width="720"></rect>
<text fill="#7f7" font-family="Courier New" font-size="12" xml:space="preserve">
<tspan x="10" y="26">2 megabytes installed</tspan>
<tspan x="10" y="42"></tspan>
<tspan x="10" y="58">node_modules</tspan>
<tspan x="10" y="74">└─┬ arangojs@5.6.1 </tspan>
<tspan x="10" y="90">  ├── es6-error@4.0.2 </tspan>
<tspan x="10" y="106">  ├─┬ http-errors@1.6.1 </tspan>
<tspan x="10" y="122">  │ ├── depd@1.1.0 </tspan>
<tspan x="10" y="138">  │ ├── inherits@2.0.3 </tspan>
<tspan x="10" y="154">  │ ├── setprototypeof@1.0.3 </tspan>
<tspan x="10" y="170">  │ └── statuses@1.3.1 </tspan>
<tspan x="10" y="186">  ├── linkedlist@1.0.1 </tspan>
<tspan x="10" y="202">  ├─┬ multi-part@2.0.0 </tspan>
<tspan x="10" y="218">  │ └─┬ mime-kind@2.0.1 </tspan>
<tspan x="10" y="234">  │   ├── file-type@3.9.0 </tspan>
<tspan x="10" y="250">  │   └─┬ mime-types@2.1.15 </tspan>
<tspan x="10" y="266">  │     └── mime-db@1.27.0 </tspan>
<tspan x="10" y="282">  ├── retry@0.10.1 </tspan>
<tspan x="10" y="298">  ├── utf8-length@0.0.1 </tspan>
<tspan x="10" y="314">  └─┬ xhr@2.4.0 </tspan>
<tspan x="10" y="330">    ├─┬ global@4.3.2 </tspan>
<tspan x="10" y="346">    │ ├─┬ min-document@2.19.0 </tspan>
<tspan x="10" y="362">    │ │ └── dom-walk@0.1.1 </tspan>
<tspan x="10" y="378">    │ └── process@0.5.2 </tspan>
<tspan x="10" y="394">    ├── is-function@1.0.1 </tspan>
<tspan x="10" y="410">    ├─┬ parse-headers@2.0.1 </tspan>
<tspan x="10" y="426">    │ ├── for-each@0.3.2 </tspan>
<tspan x="10" y="442">    │ └── trim@0.0.1 </tspan>
<tspan x="10" y="458">    └── xtend@4.0.1</tspan>
</text>
</svg>
